# xmcd
#
# Track frame offsets:
#	150
#	43975
#	80433
#	98362
#	125380
#	146835
#	176986
#	208520
#	231153
#	263464
#	278206
#	293625
#
# Disc length: 4177 seconds
#
# Revision: 1
# Processed by: cddbd v1.5.2PL0 Copyright (c) Steve Scherf et al.
# Submitted via: audiograbber 1.83.01
#
DISCID=ab104f0c
DTITLE=Grateful Dead - 72-04-29A Musikhalle, Hamburg, Germany
DYEAR=1900
DGENRE=
TTITLE0=Playing In The Band
TTITLE1=Sugaree
TTITLE2=Mr Charlie
TTITLE3=Black Throated Wind
TTITLE4=China Cat Sunflower
TTITLE5=I Know You Rider
TTITLE6=Big Boss Man
TTITLE7=Jack Straw
TTITLE8=Loser
TTITLE9=Chinatown Shuffle
TTITLE10=Me and My Uncle
TTITLE11=Big Boss Man
EXTD=
EXTT0=
EXTT1=
EXTT2=
EXTT3=
EXTT4=
EXTT5=
EXTT6=
EXTT7=
EXTT8=
EXTT9=
EXTT10=
EXTT11=
PLAYORDER=
